Coordinates
version=1
nRows=23
nColumns=27
inDegrees=yes

Units are S.I. units (second, meters, Newtons, ...)
If the header above contains a line with 'inDegrees', this indicates whether rotational values are in degrees (yes) or radians (no).

endheader
time	pelvis_rotation	pelvis_tilt	pelvis_list	pelvis_tx	pelvis_ty	pelvis_tz	hip_flexion_r	hip_adduction_r	hip_rotation_r	knee_angle_r	knee_rotation_r	knee_adduction_r	knee_angle_r_beta	ankle_angle_r	subtalar_angle_r	mtp_angle_r	hip_flexion_l	hip_adduction_l	hip_rotation_l	knee_angle_l	knee_rotation_l	knee_adduction_l	knee_angle_l_beta	ankle_angle_l	subtalar_angle_l	mtp_angle_l
      4.19000000	      3.55704829	    -31.23026308	      4.87103134	     -0.01931704	      0.63062332	     -1.14300193	     96.83897934	    -46.25204691	     -7.47975727	     80.34927588	     -8.34076905	      9.65778464	      1.40235942	     12.66994384	     15.98895709	      0.00000000	     89.87991416	    -40.47000917	    -13.38991896	     73.43153678	     -5.60503960	     -9.63972661	      1.28162209	      7.92766938	     26.17042906	      0.00000000
      4.19500000	      3.90286167	    -30.95918343	      4.83842691	     -0.01855447	      0.62952710	     -1.14309093	     96.55937111	    -46.78148058	     -8.28492687	     80.52186753	     -8.98302253	      9.82117258	      1.40537171	     12.78004876	     16.31445560	      0.00000000	     90.00677267	    -40.24507702	    -13.51303429	     73.63112251	     -6.11831167	     -9.80957884	      1.28510552	      8.00092746	     26.47223643	      0.00000000
      4.20000000	      3.55607892	    -31.20306888	      4.87455727	     -0.01945700	      0.62738164	     -1.14293815	     97.46334115	    -46.35415795	     -7.12444699	     80.92347260	     -8.48602126	      9.66267914	      1.41238104	     12.85130512	     16.07913684	      0.00000000	     90.44412023	    -40.69765012	    -13.26568317	     74.00783267	     -5.86143325	     -9.64680928	      1.29168035	      8.03369347	     26.52667565	      0.00000000
      4.20500000	      3.95718521	    -30.89002237	      4.90350846	     -0.01861013	      0.62632239	     -1.14305552	     97.19667721	    -46.96531381	     -7.84391118	     81.10381938	     -9.09170328	      9.82362377	      1.41552868	     12.94551452	     16.43810248	      0.00000000	     90.47916958	    -40.40927116	    -13.50156653	     74.18838770	     -6.42381409	     -9.81274291	      1.29483163	      8.12478874	     26.81336668	      0.00000000
      4.21000000	      3.95454754	    -30.91853129	      4.77167616	     -0.01871155	      0.62481188	     -1.14296027	     97.35108617	    -47.01534564	     -7.89195327	     81.34840717	     -9.15117377	      9.82526901	      1.41979755	     13.03360887	     16.42555630	      0.00000000	     90.93771623	    -40.51764029	    -13.20906968	     74.47737757	     -6.51994866	     -9.81482284	      1.29987546	      8.14550016	     26.96155851	      0.00000000
      4.21500000	      3.97025222	    -30.88088841	      4.89684664	     -0.01875010	      0.62320779	     -1.14293681	     97.79821132	    -47.07074291	     -7.48297286	     81.65582110	     -9.18865105	      9.82591014	      1.42516293	     13.11824463	     16.45867874	      0.00000000	     91.05783349	    -40.61520261	    -13.34996552	     74.73311067	     -6.66308276	     -9.81625239	      1.30433884	      8.22097748	     27.12647813	      0.00000000
      4.22000000	      3.94568495	    -30.89831300	      4.93402158	     -0.01881546	      0.62165262	     -1.14286678	     98.18669960	    -47.07916875	     -7.20778656	     81.94247530	     -9.22792282	      9.82708046	      1.43016599	     13.21536327	     16.43963686	      0.00000000	     91.30536151	    -40.75312558	    -13.35979161	     74.99092850	     -6.78425306	     -9.81801581	      1.30883861	      8.25485052	     27.30094838	      0.00000000
      4.22500000	      3.97033229	    -30.87949452	      4.93959556	     -0.01884934	      0.62009222	     -1.14280253	     98.48300930	    -47.15058752	     -7.00968230	     82.22394536	     -9.26331247	      9.82829128	      1.43507857	     13.28669535	     16.46167374	      0.00000000	     91.58052266	    -40.83808010	    -13.29479719	     75.26348456	     -6.91450060	     -9.81926694	      1.31359561	      8.29227044	     27.44822413	      0.00000000
      4.23000000	      3.97111467	    -30.90846439	      4.87074854	     -0.01890371	      0.61858858	     -1.14272057	     98.72146834	    -47.19733054	     -6.92561955	     82.48011642	     -9.29771852	      9.82987983	      1.43954960	     13.36910504	     16.45605149	      0.00000000	     91.96765379	    -40.94222637	    -13.14120503	     75.53663798	     -7.04921329	     -9.82133618	      1.31836304	      8.35243847	     27.58438813	      0.00000000
      4.23500000	      3.53190083	    -31.24710044	      4.64656105	     -0.01988492	      0.61663043	     -1.14246190	     99.37387650	    -46.64288014	     -6.23395773	     82.78750886	     -8.87048457	      9.67832772	      1.44491461	     13.37257831	     16.13887679	      0.00000000	     92.71270030	    -41.48572998	    -12.43578347	     75.91984002	     -6.63424878	     -9.66614858	      1.32505118	      8.38837410	     27.57010917	      0.00000000
      4.24000000	      4.07629376	    -30.88709081	      4.91308128	     -0.01897908	      0.61550157	     -1.14258965	     99.34426978	    -47.38865222	     -6.50515264	     83.04594403	     -9.36697253	      9.83118864	      1.44942515	     13.55057425	     16.50303344	      0.00000000	     92.52537033	    -41.04047021	    -12.95501089	     76.06087677	     -7.25759254	     -9.82309619	      1.32751273	      8.45227734	     27.83271885	      0.00000000
      4.24500000	      3.98061303	    -30.89385448	      5.06701898	     -0.01900486	      0.61391002	     -1.14252686	     99.91290350	    -47.29663616	     -5.97195631	     83.35506080	     -9.38410740	      9.83252125	      1.45482026	     13.60358168	     16.43288325	      0.00000000	     92.60022052	    -41.27394509	    -13.23036776	     76.31012683	     -7.40998809	     -9.82496422	      1.33186297	      8.49428662	     28.03787823	      0.00000000
      4.25000000	      3.61055416	    -31.23224559	      4.99495463	     -0.01996950	      0.61186932	     -1.14227289	    100.74050998	    -46.77560974	     -5.08262693	     83.70832442	     -8.98128481	      9.68349728	      1.46098587	     13.67949634	     16.19571939	      0.00000000	     93.22780634	    -41.74855638	    -12.69149980	     76.67170209	     -7.00515403	     -9.67452628	      1.33817364	      8.53077658	     27.96287805	      0.00000000
      4.25500000	      4.03814146	    -30.93967966	      5.04086374	     -0.01911886	      0.61086244	     -1.14235336	    100.51643205	    -47.42427200	     -5.63422399	     83.88978399	     -9.44088389	      9.83436305	      1.46415294	     13.78761910	     16.45663272	      0.00000000	     93.27305282	    -41.41160448	    -12.96573135	     76.82343130	     -7.61949772	     -9.82721887	      1.34082182	      8.58040783	     28.29097889	      0.00000000
      4.26000000	      3.61324930	    -31.16262939	      5.19577125	     -0.01993831	      0.60867241	     -1.14213249	    101.57185400	    -46.83077756	     -4.34768900	     84.30815991	     -9.04978759	      9.68729879	      1.47145498	     13.81637478	     16.18256617	      0.00000000	     93.50270747	    -41.97556913	    -12.83568036	     77.17431368	     -7.23251313	     -9.67948510	      1.34694587	      8.66751754	     28.26511904	      0.00000000
      4.26500000	      3.97754099	    -30.91507473	      5.23579589	     -0.01917682	      0.60758286	     -1.14221483	    101.43906843	    -47.39607994	     -4.81485471	     84.50293317	     -9.48162253	      9.83649992	      1.47485441	     13.91728079	     16.40592406	      0.00000000	     93.59182561	    -41.70724748	    -13.12638727	     77.34491346	     -7.84359335	     -9.82988928	      1.34992340	      8.70579206	     28.60166807	      0.00000000
      4.27000000	      3.62717883	    -31.12870730	      5.27660702	     -0.01999030	      0.60538524	     -1.14199227	    102.29738761	    -46.89573737	     -3.78582588	     84.89788340	     -9.11588772	      9.69189119	      1.48174759	     13.97308832	     16.16630147	      0.00000000	     93.98913458	    -42.17833659	    -12.72875331	     77.71578277	     -7.42871003	     -9.68373097	      1.35639629	      8.76712615	     28.52598147	      0.00000000
      4.27500000	      3.96397088	    -30.81394712	      5.55096435	     -0.01913497	      0.60420158	     -1.14208573	    102.43765714	    -47.39866221	     -3.80018854	     85.15029287	     -9.51773604	      9.83834700	      1.48615297	     14.09647962	     16.39921130	      0.00000000	     93.72390319	    -41.95674713	    -13.45712766	     77.85039191	     -8.10326496	     -9.83257819	      1.35874566	      8.84843777	     28.90058220	      0.00000000
      4.28000000	      3.53977183	    -31.05650774	      5.53754522	     -0.02000981	      0.60196913	     -1.14185311	    103.26347616	    -46.80354260	     -2.84755466	     85.53085775	     -9.17072652	      9.69557589	      1.49279508	     14.15720371	     16.13342884	      0.00000000	     94.18054587	    -42.49883033	    -12.98930598	     78.23349961	     -7.66501502	     -9.68982993	      1.36543215	      8.89920772	     28.82651495	      0.00000000
      4.28500000	      3.72229116	    -30.76819632	      5.50304004	     -0.01918216	      0.60068854	     -1.14187603	    103.10726906	    -47.20910689	     -3.26751281	     85.75791749	     -9.55392629	      9.84047543	      1.49675802	     14.27421926	     16.23501726	      0.00000000	     94.24623693	    -42.42821609	    -13.29982539	     78.45020428	     -8.30730997	     -9.83616658	      1.36921436	      8.94057954	     29.15980561	      0.00000000
      4.29000000	      3.84184704	    -30.79520876	      5.41468322	     -0.01927702	      0.59892407	     -1.14183707	    103.32466061	    -47.38387899	     -3.21170601	     86.03958821	     -9.57284721	      9.84116203	      1.50167410	     14.37928286	     16.29040184	      0.00000000	     94.78135332	    -42.36088572	    -12.89059660	     78.76019010	     -8.40387906	     -9.83572005	      1.37462464	      9.02305425	     29.26654759	      0.00000000
      4.29500000	      3.49008521	    -31.04313282	      5.28444994	     -0.02015184	      0.59662036	     -1.14160194	    103.99119170	    -46.89292640	     -2.51752034	     86.40850088	     -9.26016467	      9.70083024	      1.50811284	     14.45079774	     16.07582957	      0.00000000	     95.44428943	    -42.80318114	    -12.12629078	     79.17338850	     -7.92723267	     -9.69509648	      1.38183631	      9.07881358	     29.10858097	      0.00000000
      4.30000000	      3.83322115	    -30.74248652	      5.47144593	     -0.01932936	      0.59527714	     -1.14170653	    104.07378423	    -47.41892165	     -2.58675418	     86.67205674	     -9.60508858	      9.84362342	      1.51271276	     14.57787097	     16.20655183	      0.00000000	     95.32770295	    -42.55847718	    -12.67053156	     79.35157860	     -8.58460846	     -9.83824551	      1.38494631	      9.14952574	     29.42421267	      0.00000000
